# xmcd
#
# Track frame offsets: 
#        150
#        19270
#        38502
#        55398
#        72854
#        92246
#        110182
#        126534
#        142678
#        163078
#        182294
#        195366
#
# Disc length: 2855 seconds
#
# Revision: 0
# Processed by: cddbd v1.5.2PL0 Copyright (c) Steve Scherf et al.
# Submitted via: ExactAudioCopy v0.99pb4
#
DISCID=a20b250c
DTITLE=Suzy Bogguss - Sweet Danger
DYEAR=2007
DGENRE=Country
TTITLE0=The Bus Ride
TTITLE1=Everything
TTITLE2=No Good Way To Go
TTITLE3=If You Leave Me Now
TTITLE4=In Heaven
TTITLE5=Baby July
TTITLE6=Even If That Were True
TTITLE7=Chain Lover
TTITLE8=Sweet Danger
TTITLE9=Right Back Into the Feeling
TTITLE10=It's Not Gonna Happen Today
TTITLE11=One Clear Moment
EXTD=
EXTT0=
EXTT1=
EXTT2=
EXTT3=
EXTT4=
EXTT5=
EXTT6=
EXTT7=
EXTT8=
EXTT9=
EXTT10=
EXTT11=
PLAYORDER=
